<?xml version="1.0" encoding="UTF-8" standalone="no"?>
<!-- Created with Inkscape (http://www.inkscape.org/) -->

<svg
   width="269.84695"
   height="84.056274"
   viewBox="0 0 71.397004 22.239889"
   version="1.1"
   id="svg1"
   xmlns="http://www.w3.org/2000/svg"
   xmlns:svg="http://www.w3.org/2000/svg">
  <defs
     id="defs1" />
  <g
     id="layer1"
     transform="translate(-4.0949031,-102.64738)">
    <path
       style="font-size:16.6238px;line-height:1.25;font-family:'Hot Mustard BTN';-inkscape-font-specification:'Hot Mustard BTN, Normal';fill:#003399;stroke-width:0.415595"
       d="m 12.825047,111.67419 c -0.476147,0.47174 -1.675166,-0.60276 -1.421342,1.43139 -0.191664,3.13998 3.374775,11.32222 1.157868,9.66108 -0.928186,-0.56864 -6.6674934,1.75233 -6.2115731,-2.11667 l 1.7053195,-8.19806 c -0.4320584,-0.24401 -3.835366,2.91307 -3.7515407,1.19183 l -0.2088754,-7.81043 c 2.0217017,-0.78828 6.4832847,-2.9501 8.5286067,-3.04587 z m 0.666625,11.46222 c 0.0984,-6.14399 0.0968,-12.30113 -0.08268,-18.43645 0.990463,-0.017 2.533962,-0.9448 3.524341,-0.9833 0.03111,6.09859 -0.816583,10.58333 0,19.05 0,1.15051 -2.116667,0.80359 -3.441661,0.36975 z M 25.4,118.53333 c -0.753105,6.48134 -6.361379,7.28856 -7.655687,1.20043 -1.298359,-5.71722 0.03941,-14.15386 2.759357,-15.27804 1.320048,-0.7146 3.836951,0.68461 4.383686,3.64256 -0.840602,0.9945 -1.681204,1.989 -2.521806,2.98349 -1.423954,-3.00611 -3.31555,7.45156 0.457491,3.80051 0.858986,1.21702 1.717973,2.43404 2.576959,3.65105 z m 8.896575,-6.85914 c -0.476148,0.47174 -1.675166,-0.60276 -1.421342,1.43139 -0.191665,3.13998 3.374775,11.32222 1.157867,9.66108 -0.928185,-0.56864 -6.667494,1.75233 -6.211573,-2.11667 l 1.705323,-8.19806 c -0.432059,-0.24401 -3.835367,2.91307 -3.751541,1.19183 -0.06962,-2.60348 -0.13925,-5.20695 -0.208875,-7.81043 2.021702,-0.78828 6.483284,-2.9501 8.528606,-3.04587 l 0.201538,8.88673 z m 8.036758,8.9758 c 0,2.11667 -0.728593,4.34367 -2.116667,4.23334 -0.210721,-0.73105 -1.849734,-4.89099 -2.010822,-2.58649 -0.04454,1.92797 -0.517051,1.80876 -1.10806,1.12276 -0.914789,-0.65964 -1.829577,-1.31929 -2.744365,-1.97894 0.814139,-5.60544 1.5571,-11.27212 2.27376,-16.95744 1.31947,0.26349 2.638939,0.52699 3.958409,0.79049 0.453054,5.06851 1.163846,10.39268 1.747745,15.37628 z m -3.422059,-5.25281 -0.346231,-4.06724 c -0.07283,1.16076 -0.476581,2.7994 -0.356684,3.68185 0.234305,0.12846 0.46861,0.25693 0.702915,0.38539 z m 11.888725,3.13615 c -0.753106,6.48134 -6.52781,7.28856 -7.822118,1.20043 -1.29836,-5.71722 0.03941,-14.15386 2.759355,-15.27804 1.320048,-0.7146 3.836951,0.68461 4.383687,3.64256 -0.840603,0.9945 -1.681204,1.989 -2.521806,2.98349 -1.423954,-3.00611 -3.149118,7.45156 0.623923,3.80051 0.858987,1.21702 1.717973,2.43404 2.576959,3.65105 z m 8.730141,-6.85914 c -0.476147,0.47174 -1.675165,-0.60276 -1.421342,1.43139 -0.191664,3.13998 3.374775,11.32222 1.157868,9.66108 -0.928185,-0.56864 -6.667494,1.75233 -6.211573,-2.11667 l 1.705323,-8.19806 c -0.43206,-0.24401 -3.835367,2.91306 -3.751542,1.19183 -0.06962,-2.60348 -0.13925,-5.20695 -0.208875,-7.81043 2.021702,-0.78828 6.483285,-2.9501 8.528607,-3.04587 l 0.201537,8.88673 z m 7.369045,0.95625 c 0.135909,4.992 -1.542124,9.95533 -3.643181,9.61347 -2.082865,0.35953 -3.544651,-4.87698 -3.292914,-9.64515 -0.02089,-6.08663 2.75821,-11.75489 5.115799,-8.87098 1.262431,1.7268 1.833105,5.48952 1.820296,8.90266 z m -3.399186,-1.37552 c -1.190481,-5.11191 -1.232553,4.933 0,0 z m 10.583333,13.62841 -5.949078,-1.91267 c -0.01667,-6.16805 -0.14961,-12.33541 -0.444417,-18.46194 1.893796,0.11039 4.508452,-1.40868 6.393495,-1.86134 0.02928,1.86574 -0.660874,5.04457 -0.631584,6.91031 l -2.583815,0.49725 c -0.100398,1.86508 0.851622,0.67195 1.308835,0.91667 0.686874,-0.45702 0.270864,2.0857 0.430532,3.06263 0.284666,1.89217 -0.668366,1.2418 -1.131061,1.59871 -0.819128,-0.0368 -0.346553,2.10741 0.298691,1.13996 l 1.852516,-0.43224 c 0.06373,2.0825 0.392152,6.46016 0.455886,8.54266 z"
       id="text32"
       aria-label="Tic Tac Toe" />
    <path
       style="font-size:16.6238px;line-height:1.25;font-family:'Hot Mustard BTN';-inkscape-font-specification:'Hot Mustard BTN, Normal';fill:#3366cc;stroke-width:0.415595"
       d="m 14.232721,111.67419 c -0.476147,0.47174 -1.675166,-0.60276 -1.421342,1.43139 -0.191664,3.13998 3.374775,11.32222 1.157868,9.66108 -0.928186,-0.56864 -6.6674926,1.75233 -6.2115726,-2.11667 l 1.705319,-8.19806 c -0.432058,-0.24401 -3.835366,2.91307 -3.75154,1.19183 l -0.208876,-7.81043 c 2.021702,-0.78828 6.4832846,-2.9501 8.5286066,-3.04587 z m 0.666625,11.46222 c 0.0984,-6.14399 0.0968,-12.30113 -0.08268,-18.43645 0.990463,-0.017 2.533962,-0.9448 3.524341,-0.9833 0.03111,6.09859 -0.816583,10.58333 0,19.05 0,1.15051 -2.116667,0.80359 -3.441661,0.36975 z m 11.908328,-4.60308 c -0.753105,6.48134 -6.361379,7.28856 -7.655687,1.20043 -1.298359,-5.71722 0.03941,-14.15386 2.759357,-15.27804 1.320048,-0.7146 3.836951,0.68461 4.383686,3.64256 -0.840602,0.9945 -1.681204,1.989 -2.521806,2.98349 -1.423954,-3.00611 -3.31555,7.45156 0.457491,3.80051 0.858986,1.21702 1.717973,2.43404 2.576959,3.65105 z m 8.896575,-6.85914 c -0.476148,0.47174 -1.675166,-0.60276 -1.421342,1.43139 -0.191665,3.13998 3.374775,11.32222 1.157867,9.66108 -0.928185,-0.56864 -6.667494,1.75233 -6.211573,-2.11667 l 1.705323,-8.19806 c -0.432059,-0.24401 -3.835367,2.91307 -3.751541,1.19183 -0.06962,-2.60348 -0.13925,-5.20695 -0.208875,-7.81043 2.021702,-0.78828 6.483284,-2.9501 8.528606,-3.04587 l 0.201538,8.88673 z m 8.036758,8.9758 c 0,2.11667 -0.728593,4.34367 -2.116667,4.23334 -0.210721,-0.73105 -1.849734,-4.89099 -2.010822,-2.58649 -0.04454,1.92797 -0.517051,1.80876 -1.10806,1.12276 -0.914789,-0.65964 -1.829577,-1.31929 -2.744365,-1.97894 0.814139,-5.60544 1.5571,-11.27212 2.27376,-16.95744 1.31947,0.26349 2.638939,0.52699 3.958409,0.79049 0.453054,5.06851 1.163846,10.39268 1.747745,15.37628 z m -3.422059,-5.25281 -0.346231,-4.06724 c -0.07283,1.16076 -0.476581,2.7994 -0.356684,3.68185 0.234305,0.12846 0.46861,0.25693 0.702915,0.38539 z m 11.888726,3.13615 c -0.75311,6.48134 -6.527811,7.28856 -7.822119,1.20043 -1.29836,-5.71722 0.03941,-14.15386 2.759355,-15.27804 1.320048,-0.7146 3.836954,0.68461 4.383684,3.64256 -0.8406,0.9945 -1.681201,1.989 -2.521803,2.98349 -1.423954,-3.00611 -3.149118,7.45156 0.623923,3.80051 0.858987,1.21702 1.71797,2.43404 2.57696,3.65105 z m 8.73014,-6.85914 c -0.47615,0.47174 -1.67517,-0.60276 -1.42134,1.43139 -0.19167,3.13998 3.37477,11.32222 1.15787,9.66108 -0.92819,-0.56864 -6.6675,1.75233 -6.21158,-2.11667 l 1.70533,-8.19806 c -0.43206,-0.24401 -3.83537,2.91306 -3.75155,1.19183 -0.0696,-2.60348 -0.13925,-5.20695 -0.20887,-7.81043 2.0217,-0.78828 6.48328,-2.9501 8.52861,-3.04587 z m 7.36904,0.95625 c 0.13591,4.992 -1.54212,9.95533 -3.64318,9.61347 -2.08286,0.35953 -3.54465,-4.87698 -3.29291,-9.64515 -0.0209,-6.08663 2.75821,-11.75489 5.1158,-8.87098 1.26243,1.7268 1.8331,5.48952 1.82029,8.90266 z m -3.39918,-1.37552 c -1.19048,-5.11191 -1.23255,4.933 0,0 z m 10.58333,13.62841 -5.94908,-1.91267 c -0.0167,-6.16805 -0.14961,-12.33541 -0.44441,-18.46194 1.89379,0.11039 4.50845,-1.40868 6.39349,-1.86134 0.0293,1.86574 -0.66087,5.04457 -0.63158,6.91031 l -2.58382,0.49725 c -0.1004,1.86508 0.85162,0.67195 1.30884,0.91667 0.68687,-0.45702 0.27086,2.0857 0.43053,3.06263 0.28467,1.89217 -0.66837,1.2418 -1.13106,1.59871 -0.81913,-0.0368 -0.34655,2.10741 0.29869,1.13996 l 1.85252,-0.43224 c 0.0637,2.0825 0.39215,6.46016 0.45588,8.54266 z"
       id="text32-7"
       aria-label="Tic Tac Toe" />
  </g>
</svg>
